<svg xmlns="http://www.w3.org/2000/svg" width="22.174" height="22.174" viewBox="0 0 22.174 22.174">
  <g id="arrow-circle-right" transform="translate(22.174) rotate(90)">
    <path id="Path_11052" data-name="Path 11052" d="M0,11.087A11.087,11.087,0,1,0,11.087,0,11.087,11.087,0,0,0,0,11.087Zm19.4,0a8.315,8.315,0,1,1-8.315-8.315A8.315,8.315,0,0,1,19.4,11.087Z" fill="#0087ff"/>
    <path id="Path_11053" data-name="Path 11053" d="M12.22,8.354l1.77,1.8h-7.6a1.386,1.386,0,0,0,0,2.772h7.6l-1.77,1.8a1.386,1.386,0,1,0,1.977,1.94L17.011,13.8a3.256,3.256,0,0,0,0-4.527L14.195,6.413a1.386,1.386,0,1,0-1.977,1.94Z" transform="translate(-0.381 -0.454)" fill="#0087ff"/>
  </g>
</svg>
