<svg xmlns="http://www.w3.org/2000/svg" fill="none" width="25.407" height="25.407" viewBox="0 0 25.407 25.407">
  <path id="calendar-lines" d="M19.876,2.092H18.83V1.046a1.046,1.046,0,0,0-2.092,0V2.092H8.369V1.046a1.046,1.046,0,1,0-2.092,0V2.092H5.231A5.237,5.237,0,0,0,0,7.323V19.876a5.237,5.237,0,0,0,5.231,5.231H19.876a5.237,5.237,0,0,0,5.231-5.231V7.323A5.237,5.237,0,0,0,19.876,2.092ZM5.231,4.184H19.876a3.142,3.142,0,0,1,3.138,3.138V8.369H2.092V7.323A3.142,3.142,0,0,1,5.231,4.184Zm14.646,18.83H5.231a3.142,3.142,0,0,1-3.138-3.138V10.461H23.015v9.415A3.142,3.142,0,0,1,19.876,23.015Zm0-8.369a1.046,1.046,0,0,1-1.046,1.046H6.277a1.046,1.046,0,1,1,0-2.092H18.83A1.046,1.046,0,0,1,19.876,14.646ZM12.553,18.83a1.046,1.046,0,0,1-1.046,1.046H6.277a1.046,1.046,0,1,1,0-2.092h5.231A1.046,1.046,0,0,1,12.553,18.83Z" transform="translate(0.15 0.15)" fill="currentColor" stroke-width="0.3"/>
</svg>
