<svg xmlns="http://www.w3.org/2000/svg" width="21.422" height="25.607" viewBox="0 0 21.422 25.607" fill="none" stroke="none">
  <path id="document_7_" data-name="document (7)" d="M17.692,14.646a1.046,1.046,0,0,1-1.046,1.046H8.277a1.046,1.046,0,1,1,0-2.092h8.369A1.046,1.046,0,0,1,17.692,14.646Zm-4.184,3.138H8.277a1.046,1.046,0,1,0,0,2.092h5.231a1.046,1.046,0,1,0,0-2.092Zm9.415-6.815v8.908a5.237,5.237,0,0,1-5.231,5.231H7.231A5.237,5.237,0,0,1,2,19.876V5.231A5.237,5.237,0,0,1,7.231,0h4.723a7.279,7.279,0,0,1,5.178,2.145l3.645,3.647a7.272,7.272,0,0,1,2.146,5.177ZM15.653,3.624a5.241,5.241,0,0,0-1.1-.816V7.323A1.046,1.046,0,0,0,15.6,8.369h4.515a5.213,5.213,0,0,0-.817-1.1Zm5.177,7.345c0-.173-.033-.338-.049-.507H15.6a3.138,3.138,0,0,1-3.138-3.138V2.141c-.169-.016-.336-.049-.507-.049H7.231A3.138,3.138,0,0,0,4.092,5.231V19.876a3.138,3.138,0,0,0,3.138,3.138H17.692a3.138,3.138,0,0,0,3.138-3.138Z" transform="translate(-1.75 0.25)" fill="currentColor" stroke-width="0.5"/>
</svg>
