<svg xmlns="http://www.w3.org/2000/svg" width="25.682" height="19.262" viewBox="0 0 25.682 19.262" fill="none">
  <path id="money-bill-wave_6_" data-name="money-bill-wave (6)" d="M12.841,16.911a4.28,4.28,0,1,1,4.28-4.28A4.285,4.285,0,0,1,12.841,16.911Zm0-6.421a2.14,2.14,0,1,0,2.14,2.14A2.142,2.142,0,0,0,12.841,10.491ZM5.35,7.28A1.07,1.07,0,1,0,6.42,8.35,1.07,1.07,0,0,0,5.35,7.28Zm13.911,3.21a1.07,1.07,0,1,0,1.07-1.07A1.07,1.07,0,0,0,19.262,10.491ZM5.35,13.7a1.07,1.07,0,1,0,1.07,1.07A1.07,1.07,0,0,0,5.35,13.7Zm13.911,3.21a1.07,1.07,0,1,0,1.07-1.07A1.07,1.07,0,0,0,19.262,16.911Zm-1.071,5.35a17.987,17.987,0,0,1-4.829-.84A16.081,16.081,0,0,0,9.1,20.657a12.97,12.97,0,0,0-3.659.373,4.207,4.207,0,0,1-3.724-.689A4.256,4.256,0,0,1,0,16.911V8.834a5.394,5.394,0,0,1,3.46-5.009A11.4,11.4,0,0,1,7.493,3a17.994,17.994,0,0,1,4.829.84,16.081,16.081,0,0,0,4.265.765,12.975,12.975,0,0,0,3.659-.373,4.208,4.208,0,0,1,3.725.689,4.256,4.256,0,0,1,1.712,3.43v8.077h0a5.4,5.4,0,0,1-3.461,5.009,11.4,11.4,0,0,1-4.032.825ZM9.1,18.516a17.994,17.994,0,0,1,4.829.84,16.081,16.081,0,0,0,4.265.765,9.306,9.306,0,0,0,3.27-.685,3.2,3.2,0,0,0,2.082-3.009V8.35a2.133,2.133,0,0,0-.859-1.719,2.086,2.086,0,0,0-1.846-.343,14.893,14.893,0,0,1-4.253.457,17.994,17.994,0,0,1-4.829-.84A16.081,16.081,0,0,0,7.491,5.14a9.3,9.3,0,0,0-3.27.685A3.2,3.2,0,0,0,2.138,8.834v8.077A2.133,2.133,0,0,0,3,18.63a2.081,2.081,0,0,0,1.845.342,14.9,14.9,0,0,1,4.253-.457Z" transform="translate(-0.001 -3)" fill="currentColor"/>
</svg>
