<svg xmlns="http://www.w3.org/2000/svg" width="22.628" height="22.846" viewBox="0 0 22.628 22.846">
  <g id="refresh_1_" data-name="refresh (1)" transform="translate(-2.461)">
    <path id="Path_11054" data-name="Path 11054" d="M5.29,10.171A8.573,8.573,0,0,1,19.345,4.9L18.24,6.009a.949.949,0,0,0,.671,1.619h4.35a.949.949,0,0,0,.949-.949V2.33a.949.949,0,0,0-1.619-.671L21.357,2.892A11.407,11.407,0,0,0,2.48,9.756a1.421,1.421,0,1,0,2.81.415Z" transform="translate(0)" fill="#0087ff"/>
    <path id="Path_11055" data-name="Path 11055" d="M42.564,256.891a1.437,1.437,0,0,0-1.41,1.252A8.573,8.573,0,0,1,27.1,263.41L28.2,262.3a.949.949,0,0,0-.671-1.619h-4.35a.949.949,0,0,0-.949.949v4.35a.949.949,0,0,0,1.619.671l1.233-1.233a11.406,11.406,0,0,0,18.877-6.863,1.436,1.436,0,0,0-1.4-1.668Z" transform="translate(-18.895 -245.468)" fill="#0087ff"/>
  </g>
</svg>
