<svg xmlns="http://www.w3.org/2000/svg" width="25.863" height="25.863" viewBox="0 0 25.863 25.863" fill="none">
  <path id="shop_12_" data-name="shop (12)" d="M25.363,10.568a1.044,1.044,0,0,0-.025-.229l-1.374-6.2A5.25,5.25,0,0,0,18.8,0H6.561A5.25,5.25,0,0,0,1.4,4.137l-1.378,6.2A1.044,1.044,0,0,0,0,10.568v1.057a4.21,4.21,0,0,0,1.057,2.793v5.661a5.29,5.29,0,0,0,5.284,5.284H19.022a5.29,5.29,0,0,0,5.284-5.284V14.418a4.21,4.21,0,0,0,1.057-2.793Zm-23.249.115L3.466,4.6A3.151,3.151,0,0,1,6.561,2.114H7.4v3.17a1.057,1.057,0,1,0,2.114,0V2.114h6.341v3.17a1.057,1.057,0,1,0,2.114,0V2.114H18.8A3.151,3.151,0,0,1,21.9,4.6l1.353,6.087v.942a2.114,2.114,0,0,1-2.114,2.114H20.079a2.114,2.114,0,0,1-2.114-2.114,1.057,1.057,0,0,0-2.114,0,2.114,2.114,0,0,1-2.114,2.114H11.625a2.114,2.114,0,0,1-2.114-2.114,1.057,1.057,0,0,0-2.114,0,2.114,2.114,0,0,1-2.114,2.114H4.227a2.114,2.114,0,0,1-2.114-2.114ZM19.022,23.249H6.341a3.17,3.17,0,0,1-3.17-3.17V15.718a4.2,4.2,0,0,0,1.057.134H5.284a4.217,4.217,0,0,0,3.17-1.434,4.217,4.217,0,0,0,3.17,1.434h2.114a4.217,4.217,0,0,0,3.17-1.434,4.217,4.217,0,0,0,3.17,1.434h1.057a4.2,4.2,0,0,0,1.057-.134v4.361A3.17,3.17,0,0,1,19.022,23.249Z" transform="translate(0.25 0.25)" fill="currentColor" stroke-width="0.5"/>
</svg>
