<svg xmlns="http://www.w3.org/2000/svg" width="25.744" height="25.724" viewBox="0 0 25.744 25.724" fill="none">
  <g id="Profile_Circle_-_SVG" data-name="Profile Circle - SVG" transform="translate(-1.75 -1.75)">
    <path id="Path_10395" data-name="Path 10395" d="M26.244,14.612A11.622,11.622,0,1,1,14.622,3,11.551,11.551,0,0,1,26.244,14.612Z" transform="translate(0 0)" fill="none" stroke="currentColor" stroke-width="2"/>
    <path id="Path_10396" data-name="Path 10396" d="M14.274,9.956a1.319,1.319,0,0,1-1.319,1.319v2.637a3.956,3.956,0,0,0,3.956-3.956Zm-1.319,1.319a1.319,1.319,0,0,1-1.319-1.319H9a3.956,3.956,0,0,0,3.956,3.956ZM11.637,9.956a1.319,1.319,0,0,1,1.319-1.319V6A3.956,3.956,0,0,0,9,9.956Zm1.319-1.319a1.319,1.319,0,0,1,1.319,1.319h2.637A3.956,3.956,0,0,0,12.956,6Z" transform="translate(1.666 0.836)" fill="currentColor"/>
    <path id="Path_10397" data-name="Path 10397" d="M5.441,18.927l-1.195-.365-.194.668.443.529Zm17.04,0,.946.832.443-.529-.194-.668Zm-12.26-2.372H17.7V14h-7.48Zm0-2.555a6.258,6.258,0,0,0-5.975,4.562l2.39.729a3.756,3.756,0,0,1,3.585-2.736Zm3.74,7.665a9.852,9.852,0,0,1-7.574-3.57L4.494,19.758a12.32,12.32,0,0,0,9.466,4.462Zm3.74-5.11a3.756,3.756,0,0,1,3.585,2.736l2.39-.729A6.258,6.258,0,0,0,17.7,14Zm3.834,1.54a9.852,9.852,0,0,1-7.574,3.57V24.22a12.32,12.32,0,0,0,9.466-4.462Z" transform="translate(0.662 2.994)" fill="currentColor"/>
  </g>
</svg>
